# xmcd
#
# Track frame offsets: 
#        182
#        13445
#        39360
#        54980
#        69457
#        92582
#        113852
#        129017
#        153575
#        168335
#        177995
#        187402
#        201612
#        231382
#        251027
#
# Disc length: 3494 seconds
#
# Revision: 6
# Processed by: cddbd v1.5.2PL0 Copyright (c) Steve Scherf et al.
# Submitted via: ExactAudioCopy v1.0b6
#
DISCID=d70da40f
DTITLE=Blues - Back to Blues - Back to Blues II - CD1
DYEAR=1991
DGENRE=Blues
TTITLE0=Gary Moore - Too Tired (1990)
TTITLE1=Rory Gallagher - Kid Gloves (1990)
TTITLE2=Jethro Tull - Song For Jeffrey (1987)
TTITLE3=Canned Heat - Rollin' And Tumblin' (1968)
TTITLE4=Byther Smith - Live On And Sing The Blues (1991)
TTITLE5=Rory Block - Got To Shine (1991)
TTITLE6=The Siegel-Schwall Band - Take Out Some Insurance (1974)
TTITLE7=Country Joe Mcdonald - Power Plant Blues (1983)
TTITLE8=Eric Burdon Band - It Hurts Me Too (1982)
TTITLE9=The Small Faces - Call It Something Nice (1989)
TTITLE10=The Yardbirds - I Ain't Got You (1986)
TTITLE11=T-Bone Walker - That Evening Train (1990)
TTITLE12=The Holmes Brothers - When Something Is Wrong With My Baby (1
TTITLE12=990)
TTITLE13=Jonny Adams - Baby Please (1989)
TTITLE14=Bo Diddley - Bo Diddley (1955)
EXTD=YEAR: 1991
EXTT0=
EXTT1=
EXTT2=
EXTT3=
EXTT4=
EXTT5=
EXTT6=
EXTT7=
EXTT8=
EXTT9=
EXTT10=
EXTT11=
EXTT12=
EXTT13=
EXTT14=
PLAYORDER=
